# Blender v2.79 (sub 0) OBJ File: ''
# www.blender.org
o Cube_Cube.002
v -1.000000 -1.414214 0.000000
v -1.000000 0.000000 1.414214
v -1.000000 0.000000 -1.414214
v -1.000000 1.414214 0.000000
v 1.000000 -1.414214 0.000000
v 1.000000 0.000000 1.414214
v 1.000000 0.000000 -1.414214
v 1.000000 1.414214 0.000000
vt 0.666866 0.000200
vt 0.999800 0.333134
vt 0.666866 0.333133
vt 0.000200 0.666866
vt 0.333134 0.999800
vt 0.000200 0.999800
vt 0.666467 0.666467
vt 0.333533 0.333533
vt 0.666467 0.333533
vt 0.333134 0.666467
vt 0.000200 0.333533
vt 0.333134 0.333533
vt 0.333533 0.333134
vt 0.666467 0.000200
vt 0.666467 0.333134
vt 0.000200 0.333134
vt 0.333134 0.000200
vt 0.333134 0.333134
vt 0.999800 0.000200
vt 0.333134 0.666866
vt 0.333533 0.666467
vt 0.000200 0.666467
vt 0.333533 0.000200
vt 0.000200 0.000200
vn -0.5773 0.0000 0.8165
vn -0.5773 0.0000 -0.8165
vn -0.5773 -0.8165 0.0000
vn -0.5773 0.8165 0.0000
vn 0.5773 0.0000 -0.8165
vn 0.5773 0.8165 0.0000
vn 0.5773 -0.8165 0.0000
vn 0.5773 0.0000 0.8165
s 1
f 2/1/1 3/2/2 1/3/3
f 4/4/4 7/5/5 3/6/2
f 8/7/6 5/8/7 7/9/5
f 6/10/8 1/11/3 5/12/7
f 7/13/5 1/14/3 3/15/2
f 4/16/4 6/17/8 8/18/6
f 2/1/1 4/19/4 3/2/2
f 4/4/4 8/20/6 7/5/5
f 8/7/6 6/21/8 5/8/7
f 6/10/8 2/22/1 1/11/3
f 7/13/5 5/23/7 1/14/3
f 4/16/4 2/24/1 6/17/8
